<svg xmlns="http://www.w3.org/2000/svg" fill="none" viewBox="0 0 94 122">
  <circle cx="47.679" cy="46.735" r="44.846" fill="url(#hmPbzZsuda)"/>
  <path d="M87.805 66.186a.518.518 0 01-.329-.165 66.785 66.785 0 00-2.133-1.309 54.971 54.971 0 00-6.24-3.116c-1.314-.655-7.06-3.44-7.226-3.44-.163-.166-.328-.328-.491-.328-.166-.166-.494-.328-.657-.656l-.823-.821c-1.148-1.311-3.118-3.278-3.94-4.097l-.33-.328v.163a11.772 11.772 0 01-2.79 4.427l-.656.656s-.657.656-1.642 1.807c-1.81 1.64-3.776 3.278-4.927 4.427-1.15 1.149-2.462 2.295-3.62 3.441-2.297 1.807-4.596 4.097-6.075 5.421l-.163.165a6.155 6.155 0 01-.822-1.31c-2.3-3.445-6.724-10.164-6.724-10.164l-3.284-3.441-.163.163-3.45 4.261a1.22 1.22 0 01-.491.493l-8.702 2.951c.007.229-.05.455-.166.653a59.906 59.906 0 00-9.524 8.361l-.163.163a68.301 68.301 0 006.889 6.854 66.298 66.298 0 0011.164 6.885c.165 0 .328.162.494.162.165 0 .163.165.328.165a47.65 47.65 0 0010.836 2.623c1.81.163 3.62.328 5.43.328a47.479 47.479 0 0016.748-3.116h.165c.329-.162 1.148-.49 2.462-1.146a55.952 55.952 0 008.534-5.083 31.608 31.608 0 004.914-4.424l.165-.163.985-.984.163-.165c.321-.286.598-.617.823-.983l.163-.163 1.97-2.46.166-.163a6.91 6.91 0 00.82-1.148l.165-.163A15.694 15.694 0 0087.3 68.63a3.67 3.67 0 01.492-2.458" fill="#FCB813"/>
  <path d="M87.805 66.534c-2.82 6.143-7.029 11.496-12.274 15.606a58.95 58.95 0 014.404-19.653v-.174a87.136 87.136 0 017.87 4.224m-15.107-7.942a97.123 97.123 0 00-8.228 30.418v.169a45.575 45.575 0 01-17.299 3.343c-1.851 0-3.703-.169-5.554-.335 0-1.003-.672-14.04 2.015-16.38a34.16 34.16 0 0111.421-5.35c3.526-1.168 4.367-1.502 4.367-1.502a2.885 2.885 0 001.444-1.189 2.863 2.863 0 00.408-1.82l.17-2.005a4.402 4.402 0 003.358 1.002c1.852-.334 3.703-1.842 6.716-7.354l.672.669c.17.168.336.334.505.334h.005zM46.83 83.499a1.666 1.666 0 00-1.037-1.545 1.687 1.687 0 00-1.83.363 1.67 1.67 0 001.187 2.853 1.689 1.689 0 001.186-.491c.315-.313.492-.738.494-1.18" fill="#F89F59"/>
  <path d="M65.931 52.87s3.261 3.418 4.88 5.044c-2.936 5.38-4.73 6.993-6.523 7.157a4.283 4.283 0 01-3.26-.976l-.163 1.95c0 2.602-1.797 2.927-1.797 2.927s-.814.326-4.24 1.465a33.037 33.037 0 00-11.084 5.206c-2.447 2.277-1.956 14.961-1.956 15.937a46.363 46.363 0 01-11.576-2.928l.814-25.533a39.479 39.479 0 003.913-4.718l.165-.161a31.842 31.842 0 003.096 3.253c3.423 5.202 7.988 11.708 7.827 11.872 1.956-1.793 5.54-5.043 8.314-7.157 2.773-2.113 8.314-7.807 8.314-7.807.416-.402.798-.838 1.143-1.301a9.441 9.441 0 002.118-4.23M23.603 65.144c0 .17-2.178 13.1-3.085 18.714v.17c-.546-.341-1.09-.85-1.635-1.19 1.272-6.295 2.178-11.57 3.088-16.164 0-.34.18-.68.18-1.02 0-.172.543-.34 1.452-.51z" fill="#F89F59"/>
  <path d="M34.817 57.592l-3.66 4.73a4.9 4.9 0 001.12 1.565c.472.44 1.026.781 1.628 1.001a4.742 4.742 0 003.725-.2 3.496 3.496 0 00-.988 1.024 3.561 3.561 0 00-.505 1.34c0 1.521 2.489 2.703 3.984 3.04a10.17 10.17 0 016.142 3.55v-.338a6689.574 6689.574 0 01-7.97-12.333l-3.484-3.38" fill="#fff"/>
  <path d="M46.263 73.735a12.671 12.671 0 00-3.638-1.742 34.585 34.585 0 01-3.794-1.105c-4.124-1.108-3.464-3.32-5.114-2.845-2.146.79-1.65 8.535-1.32 10.747a16.967 16.967 0 003.638 8.214 8.444 8.444 0 002.685 1.919 8.763 8.763 0 003.252.77c.33-4.902-.493-12.329 3.96-15.014l.33-.949" fill="#fff"/>
  <path d="M46.044 73.227s6.008-5.212 10.015-8.956c2.84-2.606 9.017-7.002 10.352-11.4l5.343 5.386a311.376 311.376 0 00-4.007 5.698 4.296 4.296 0 01-1.727 1.212 4.398 4.398 0 01-2.112.255c-1.84-.49-2.172-.977-2.172-.977s1.504 3.745-4.007 5.386c-2.337.651-10.683 3.093-13.355 5.699l1.67-2.28m-3.155 10.395c.327-4.09 2.29-8.019 5.725-8.838 5.563-1.472 9.817-2.781 11.454-3.436 3.107-.982 7.689-5.728 6.87-1.964 0 0-.328 16.365-4.09 18.656-7.527 4.42-22.25 1.805-22.25 1.805a32.362 32.362 0 002.29-6.22" fill="#fff"/>
  <path d="M46.26 81.195a1.888 1.888 0 11-1.886 1.888 1.922 1.922 0 011.886-1.888" fill="#A86443"/>
  <path d="M46.263 81.195a1.888 1.888 0 110 3.776 1.888 1.888 0 010-3.776M22.394 65.451c-.974 6.446-1.135 10.742-1.623 17.516a49.216 49.216 0 0010.386 5.782 239.698 239.698 0 01-.164-26.436l-8.6 3.138zm57.367-3.43c-1.324-.664-7.283-3.485-7.283-3.485A78.985 78.985 0 0064.2 88.748h.167s.993-.499 2.646-1.163a56.13 56.13 0 008.603-5.145 82.804 82.804 0 013.31-16.766c.498-1.161.83-2.49 1.324-3.486-.33 0-.33-.167-.495-.167" fill="#fff"/>
  <path d="M79.622 62.313c-.314 1.145-.788 2.287-1.259 3.601a.149.149 0 01.111.047.16.16 0 01.045.115 69.42 69.42 0 00.474 13.232 48.332 48.332 0 007.711-10.29c.315-.653.786-1.306 1.1-2.121a38.189 38.189 0 00-8.18-4.574m-57.909 4.71c-.775 4.292-1.547 9.223-2.632 15.106a45.681 45.681 0 01-6.81-6.679l.157-.158a70.4 70.4 0 019.285-8.264" fill="#fff"/>
  <path d="M63.74 37c-.163 0-.323-.164-.485-.164a9.022 9.022 0 01-2.575-4.149 18.38 18.38 0 00-5.473-5.308c-.769.507-1.576.95-2.413 1.327a29.521 29.521 0 01-12.07 4.313 5.495 5.495 0 01-3.06-1.829c-.64-.663-1.928-2.158-3.216-3.485a14.02 14.02 0 00-3.219 6.793c0 .331-.162.828-.162 1.327 0 0-.482 3.15-.804 5.969v.83a27.045 27.045 0 00.322 6.137c.235 1.545.668 3.05 1.288 4.478a1.3 1.3 0 01.322.663 25.995 25.995 0 003.057 4.313 32.042 32.042 0 003.056 3.318c3.382 5.308 7.889 11.944 7.726 12.108 1.932-1.828 5.473-5.14 8.048-7.299 2.735-2.155 8.207-7.96 8.207-7.96.41-.41.788-.853 1.128-1.326a11.331 11.331 0 002.251-4.149c.217-.923.325-1.87.322-2.819.162-4.313.162-5.14.162-6.635a4.73 4.73 0 002.53-1.538 4.978 4.978 0 001.171-2.775 11.598 11.598 0 00-.322-3.315 1.86 1.86 0 00-.732-1.025 1.769 1.769 0 00-1.2-.302c-2.09 0-3.216 2.983-3.216 2.983-.162-.332-.484-.332-.644-.496" fill="#F2A568"/>
  <path d="M64.494 37.455s1.129-2.936 3.228-2.936c2.1 0 2.26 2.612 2.097 4.568a4.752 4.752 0 01-1.157 2.747 4.66 4.66 0 01-2.554 1.497c0 1.471 0 2.286-.163 6.53a9.69 9.69 0 01-2.42 6.857c-1.45 1.959-9.037 6.039-11.134 7.183-2.097 1.144-6.133 3.426-7.747 3.1-2.742-.653-3.558-3.265-6.133-5.55a33.481 33.481 0 01-6.608-8.325 21.957 21.957 0 01-1.614-10.283c.162-2.938.808-6.684.808-6.684a13.276 13.276 0 013.228-7.836" stroke="#A86443" stroke-width=".533"/>
  <path d="M37.493 53.328a8.786 8.786 0 001.99 2.783 8.09 8.09 0 002.844 1.73c2.188-.333 4.252-1.292 5.976-2.777 2.908-2.255 2.424-3.125 2.585-3.125 0-.172.806 1.389-2.262 3.647-1.86 1.605-4.096 2.625-6.462 2.95-2.303-.809-4.221-2.553-5.343-4.86" fill="#A86443"/>
  <path d="M34.374 48.736a5.503 5.503 0 01-1.801.353 3.776 3.776 0 01-1.58-.259 4.013 4.013 0 01-1.366-.9 4.39 4.39 0 01-.938-1.4 4.686 4.686 0 01-.365-1.684c.062-1.165.54-2.259 1.332-3.05.793-.792 1.838-1.22 2.917-1.193a3.908 3.908 0 012.729.918 4.514 4.514 0 011.52 2.618" fill="#ABE0F9"/>
  <path d="M34.374 48.736a5.503 5.503 0 01-1.801.353 3.776 3.776 0 01-1.58-.259 4.013 4.013 0 01-1.366-.9 4.39 4.39 0 01-.938-1.4 4.686 4.686 0 01-.365-1.684c.062-1.165.54-2.259 1.332-3.05.793-.792 1.838-1.22 2.917-1.193a3.908 3.908 0 012.729.918 4.514 4.514 0 011.52 2.618" stroke="#CD8658" stroke-width=".249"/>
  <path d="M35.87 45.33a27.758 27.758 0 00-7.546.806c.305.587.817 1.09 1.473 1.448.657.357 1.43.554 2.224.565.992.022 1.954-.267 2.684-.805.458-.644.85-1.318 1.172-2.013" fill="#FDCC99"/>
  <path d="M34.702 42.485a14.727 14.727 0 00-6.21 1.889c-.07.258-.124.52-.162.785-.026.375.03.75.163 1.103a23.624 23.624 0 017.355-.944v-.159a2.75 2.75 0 00-.194-1.487c-.202-.47-.53-.88-.952-1.187" fill="#fff"/>
  <path d="M43.811 50.843c1.486-.821 1.155-1.968.66-2.133-.496-.328-.496-.49-.496-.49.227.025.449.08.66.162.662 0 1.322 1.807-.493 2.786a35.826 35.826 0 01-6.765 2.132 8.854 8.854 0 01-3.642.49 1.81 1.81 0 01-1.463-1.017 1.773 1.773 0 01.142-1.768c1.982-4.262 5.12-8.03 6.275-12.458.166-3.276-.825-3.441-.495-3.614-.166 0 1.155.163.991 3.614-1.157 4.755-4.295 8.361-6.277 12.62-1.486 2.951 2.643 2.623 4.459 1.808a59.822 59.822 0 006.444-2.13" fill="#A86443"/>
  <path d="M35.877 43.82c.626-.303 1.388-.437 2.144-.376 1.624.123 3.168.555 4.465 1.249v.625c-1.236-.604-2.633-1.029-4.108-1.249a9.52 9.52 0 00-2.32.25l-.18-.5z" fill="#fff"/>
  <path d="M35.877 43.82c.626-.303 1.388-.437 2.144-.376 1.624.123 3.168.555 4.465 1.249v.625c-1.236-.604-2.633-1.029-4.108-1.249a9.52 9.52 0 00-2.32.25l-.18-.5z" stroke="#CD8658" stroke-width=".249"/>
  <path d="M41.542 45.33c.069-1.039.6-2.014 1.48-2.72.882-.707 2.044-1.088 3.243-1.065a5.14 5.14 0 011.756.233c.562.178 1.077.45 1.516.803.439.352.793.777 1.041 1.249.248.472.386.982.405 1.5-.1 1.027-.642 1.984-1.516 2.68-.874.698-2.018 1.084-3.204 1.084-1.187 0-2.33-.386-3.205-1.083-.874-.697-1.415-1.654-1.516-2.68" fill="#ABE0F9"/>
  <path d="M46.735 49.094c2.346 0 4.248-1.69 4.248-3.776s-1.902-3.777-4.248-3.777c-2.347 0-4.249 1.691-4.249 3.777 0 2.085 1.902 3.776 4.249 3.776z" stroke="#CD8658" stroke-width=".249"/>
  <path d="M64.201 36.821s-5.549 3.849-8.65 5.932c-2.285 1.444-4.568 2.566-4.568 2.566v-.642s2.12-1.121 4.405-2.404c2.12-1.283 7.996-5.452 7.996-5.452" fill="#fff"/>
  <path d="M64.201 36.821s-5.549 3.849-8.65 5.932c-2.285 1.444-4.568 2.566-4.568 2.566v-.642" stroke="#CD8658" stroke-width=".249"/>
  <path d="M51.927 45.507v.755h-.944v-1.888h.944v1.133z" fill="#fff"/>
  <path d="M51.927 45.507v.755h-.944v-1.888h.944v1.133z" stroke="#CD8658" stroke-width=".249"/>
  <path d="M46.18 49.093c.943.016 1.859-.36 2.571-1.054.713-.694 1.171-1.659 1.288-2.708a21.07 21.07 0 00-7.553 1.128 4.32 4.32 0 001.494 1.947 3.633 3.633 0 002.207.687" fill="#FDCC99"/>
  <path d="M48.723 42.485a13.154 13.154 0 00-6.068 1.971c0 .163-.163.492-.163.657-.026.39.03.782.163 1.149a21.96 21.96 0 017.38-.986v-.152a2.997 2.997 0 00-1.312-2.639" fill="#fff"/>
  <path d="M33.989 27.846c-1.674 1.995-2.796 4.45-3.24 7.087a15.562 15.562 0 01.809-10.386c.487.693 1.459 2.078 2.43 3.288m29.825 8.648a8.854 8.854 0 01-2.595-4.084 18.333 18.333 0 00-5.514-5.225 28.895 28.895 0 008.596-7.348 12.186 12.186 0 015.675 6.206c.99 2.951 1.102 6.13.325 9.145a1.838 1.838 0 00-.739-1.008 1.816 1.816 0 00-1.208-.299c-2.109 0-3.243 2.937-3.243 2.937a1.211 1.211 0 01-.81-.162" fill="#553225"/>
  <path d="M68.91 33.975c-2.12.113-4.218-.527-5.998-1.829-2.594-2.927-4.051-4.937-4.376-4.756 1.968.608 3.723 1.886 5.025 3.659a37.006 37.006 0 005.36 2.926m.935-1.942a7.362 7.362 0 01-3.115-.247 7.29 7.29 0 01-2.721-1.515c-2.594-2.238-4.376-3.836-4.54-3.836a11.513 11.513 0 015.362 2.716 12.752 12.752 0 005.024 2.877" fill="#A86443"/>
  <path d="M69.866 30.212c-1.875-.108-3.658-.772-5.07-1.888a13.045 13.045 0 00-4.371-2.832c1.86.322 3.567 1.145 4.897 2.359a11.705 11.705 0 004.544 2.361zm-1.888-3.805a3.84 3.84 0 01-1.642-.156 3.89 3.89 0 01-1.433-.832 13.791 13.791 0 00-2.59-1.816 5.45 5.45 0 013.075 1.152 9.368 9.368 0 002.59 1.647" fill="#B37658"/>
  <path d="M53.816 39.338c-.925.149-1.872.254-2.833.315.252-.224.39-.476.402-.735v-.21c.868.145 1.688.357 2.43.63" fill="#fff"/>
  <path d="M50.983 38.084v.312c-.008.384-.1.76-.267 1.091a6.126 6.126 0 01-1.752.158h-.54a3.283 3.283 0 01-.269-1.094c-.02-.22.029-.442.136-.625a2 2 0 01.942-.154 1.3 1.3 0 00-.27.779.967.967 0 00.173.627.729.729 0 00.502.31c.09.005.18-.01.264-.048a.636.636 0 00.224-.167.76.76 0 00.144-.26.846.846 0 00.04-.305.912.912 0 00-.073-.348.791.791 0 00-.196-.276.73.73 0 01.471-.178c.17 0 .334.062.471.178" fill="#8D5537"/>
  <path d="M48.15 39.654a27.249 27.249 0 01-3.776-.343 10.73 10.73 0 013.426-1.545c0 .172-.172.343-.172.686.172.343.342.859.515 1.202" fill="#fff"/>
  <path d="M50.605 38.109c.2.188.331.428.377.686a.746.746 0 01-.057.336.809.809 0 01-.202.285.903.903 0 01-.313.185.968.968 0 01-.368.051 1.086 1.086 0 01-.702-.34.905.905 0 01-.242-.69c.008-.317.142-.622.377-.856h.19c.563.343.753.343.94.343" fill="#000"/>
  <path d="M48.243 38.816c-.207.13 0 .522 0 .651.21.132.417.261.628.132.624-.393-.21-1.176-.628-.783z" fill="#FFC33E"/>
  <path d="M48.297 40.597h-.491a19.442 19.442 0 01-3.432-.378v-.188c1.134.228 2.281.354 3.432.378 1.603.022 3.2-.233 4.739-.756h.327v.187h-.163a16.45 16.45 0 01-4.412.757" fill="#CD8658"/>
  <path d="M46.858 38.492a174.28 174.28 0 00-2.484 1.015s.165-.434 2.484-1.306a6.343 6.343 0 012.32-.435c.799 0 1.59.148 2.319.435 2.319.872 2.319 1.453 2.319 1.453a12.37 12.37 0 00-2.486-1.162 5.904 5.904 0 00-2.236-.436c-.773 0-1.536.149-2.236.436m7.356-3.772a8.695 8.695 0 012.434 2.1 18.693 18.693 0 00-5.369-2.424c-2.758-.484-3.407-.324-3.732-.484-.325-.16-.488-.647-.164-.647.57-.22 1.19-.277 1.79-.163 1.78.143 3.503.696 5.031 1.617" fill="#77442A"/>
  <path d="M37.765 39.493a2.494 2.494 0 01-.944.158c.097-.296.138-.62.12-.943.286.24.561.502.824.785" fill="#fff"/>
  <path d="M36.814 38.625c.03.352-.035.705-.19 1.029h-1.691v-.173a.98.98 0 00.544-.307.831.831 0 00.213-.55.83.83 0 00-.213-.551.98.98 0 00-.544-.307 4.62 4.62 0 011.881.859m-1.881-.858a.716.716 0 00-.314.051.755.755 0 00-.267.184.816.816 0 00-.173.285.86.86 0 00-.048.334.821.821 0 00.157.569c.12.16.295.264.486.289v.175h-.322c-.321 0-.804-.17-1.285-.17a1.977 1.977 0 010-1.37c.359-.14.742-.2 1.123-.172.196-.118.418-.177.643-.17" fill="#8D5537"/>
  <path d="M35.418 37.766c.13.047.247.166.33.338.084.171.13.385.13.606 0 .22-.046.434-.13.606-.083.171-.2.29-.33.338-.135-.028-.259-.142-.344-.319a1.295 1.295 0 01-.112-.627c-.113-.565.115-.942.456-.942z" fill="#000"/>
  <path d="M33.986 39.654a10.006 10.006 0 01-1.885-.209c.476-.726 1.068-1.3 1.732-1.68a6.918 6.918 0 00.156 1.889" fill="#fff"/>
  <path d="M33.553 38.282c-1.308.61-1.452.915-1.452.915s0-.459 1.452-1.22a3.238 3.238 0 012.906.305c1.306.915 1.306 1.372 1.306 1.372a17.136 17.136 0 00-1.452-1.067 3.021 3.021 0 00-2.76-.305m3.257-4.899c.157.723-1.255.544-2.826 1.446a13.093 13.093 0 00-2.828 1.992c.156-.182.785-1.267 1.257-1.807a8.423 8.423 0 012.355-1.628c.943-.361 1.885-.54 2.041 0" fill="#77442A"/>
  <path d="M32.263 24.565a1.288 1.288 0 01-.162-.665 8.167 8.167 0 011.446-4.489c.242-.325.58-.559.963-.665 2.084-3.826 9.305-12.138 11.877-12.138 1.284 0 2.247 2.16 3.05 2.658.802-.497 1.605-2.16 2.727-2.16a8.158 8.158 0 014.173 2.66c1.604 1.496 3.851 4.156 4.01 4.324 0 0 .963-.665 1.77.998.48.997 2.084 4.488 2.084 4.488a.531.531 0 01-.159.333 28.832 28.832 0 01-8.507 7.481c-.767.508-1.571.953-2.405 1.33a29.332 29.332 0 01-12.035 4.324 5.473 5.473 0 01-3.05-1.833c-.642-.665-1.923-2.163-3.207-3.493a12.395 12.395 0 01-2.568-3.159" fill="#fff"/>
  <path d="M61.003 15.105l2.254 4.412a66.678 66.678 0 01-20.77 12.582c.147-1.933.77-3.799 1.81-5.425a11.516 11.516 0 014.146-3.889 57.488 57.488 0 0012.56-7.68" fill="#CBD8EE"/>
  <path d="M67.978 77.418l-.313.944-.631-.104.63-.84h.314zm.944-4.511l-.472 1.68h-.472l.706-1.889.238.209zm.944-2.096l-.566.943-.378-.106.566-.838.378.001zm6.609.103l-.472.84-.472-.104.472-.84.472.104zm-.945 1.888l-.471.84h-.472l.472-.944.472.105zm-4.72-5.665l-.566.84-.378-.104.566-.84.378.104zm.944-1.888l-.472.84-.472-.105.706-.84.238.105zm4.721 2.937l-.472 1.68h-.472l.472-1.889.472.209zm-3.777-4.826l-.566.84-.378-.104.566-.84.378.104zm0-1.753l-.566 1.65h-.378l.566-1.888.378.238zm5.665 1.649l-.566.944h-.378l.566-.944h.378zm.25-1.435l-.25.608.304.125.25-.608-.304-.125zm-4.971-2.341l-.629 1.889-.315-.235.63-1.65.314-.004zm3.777 7.555l-.566.942-.378-.106.566-.838.378.002zm-48.077 4.128l-.013 1.315.329.003.013-1.315-.329-.003zm-6.565.752l-.178 1.303.325.044.179-1.302-.326-.045zm-.305 1.849l-.179 1.303.326.045.179-1.303-.326-.045zm-.426 2.131l-.18 1.303.326.045.18-1.303-.326-.045zm-.226 1.902l-.18 1.303.326.044.18-1.302-.326-.045zm7.485-8.717l-.015 1.315.329.003.014-1.315-.328-.003zm-6.323.788l-.179 1.303.326.045.178-1.303-.325-.045zm6.301-3.154l-.014 1.315.33.003.013-1.315-.329-.003zm-4.736-1.57l-.313.945h-.63l.312-.707.631-.238zm-.867 1.208l-.178 1.303.326.045.178-1.303-.325-.045zm-.372 1.748l-.179 1.303.326.045.179-1.303-.326-.045zm6.026-3.302l-.013 1.315.329.003.013-1.315-.329-.003zm.034 8.424l-.013 1.315.329.003.013-1.315-.329-.003zm-.133 2.124l-.015 1.478.329.004.015-1.478-.329-.004zm-.242 2.079l-.016 1.478.329.004.015-1.478-.328-.004zm.074 2.035l-.015 1.478.329.004.015-1.479-.329-.003zm-7.437.261l-.201 1.465.325.044.201-1.464-.326-.045zm7.348 3.797l-.014 1.478.329.004.014-1.478-.329-.004zm.072-2.178l-.016 1.477.329.004.015-1.478-.329-.004z" fill="#A86443"/>
  <path d="M.944 46.26a46.263 46.263 0 1146.273 46.265A46.192 46.192 0 01.944 46.26zm46.273 43.785A43.785 43.785 0 103.424 46.26a43.86 43.86 0 0043.793 43.785z" fill="#fff"/>
  <path fill-rule="evenodd" clip-rule="evenodd" d="M0 85.77h50.47c.163 0 .325-.488.65-.814l1.303-.326c.816-.652 2.118-2.282 3.256-3.26.475-.145.972-.2 1.467-.164a5.206 5.206 0 013.59 1.142c.326.326 1.628.652 1.795.814l.325.816a8.595 8.595 0 011.795-1.142c.977-.488 1.467-1.466 1.954-1.304a6.574 6.574 0 012.93 4.238H93.47v36.023H0V85.77z" fill="#fff"/>
  <path fill-rule="evenodd" clip-rule="evenodd" d="M2.059 119.899H91.58V87.803H70.267l-.493.998a1.257 1.257 0 011.311.333c.343.184.639.445.866.762.228.318.38.685.446 1.072a8.633 8.633 0 01-.13 4.092 8.546 8.546 0 01-2 3.558 6.29 6.29 0 01-3.445 1.33c-.328.666 0 1.331 0 2.161-.328.666-1.146.666-1.64 1.166-.328 0-.49.333-.818.333a4.98 4.98 0 01-2.25 1.121 4.937 4.937 0 01-2.504-.124c-1.15-.665-2.624-.5-3.615-1.498a8.955 8.955 0 01-1.312-.998 2.316 2.316 0 00-.493-.665c-.49.333-1.312 1.166-2.13.665a7.973 7.973 0 01-2.052-2.934 8.084 8.084 0 01-.572-3.55 3.864 3.864 0 01.656-2.33 4.396 4.396 0 01-.819-3.158 180.276 180.276 0 00-47.385 11.307l.163 18.46.008-.005z" fill="#0A6"/>
  <path fill-rule="evenodd" clip-rule="evenodd" d="M9.612 117.99a4.399 4.399 0 003.458-1.635 4.584 4.584 0 00.821-3.605c-.329-2.781-3.784-3.762-3.784-6.695.164-.327.33-.492.493-.819.165 0 .329-.162.495-.327a3.876 3.876 0 012.962.981l.492-2.616a5.024 5.024 0 00-3.454-1.308 7.05 7.05 0 00-1.975.654 5.066 5.066 0 00-1.513 1.885 5.032 5.032 0 00-.462 2.367c.172.691.449 1.353.821 1.962.988 1.635 3.458 2.778 2.963 5.067a2.2 2.2 0 01-1.151.981 3.924 3.924 0 01-1.975-.489l-1.48-.981-.658 2.778c.417.47.92.859 1.48 1.146.329.162.658.162.987.327.493.489.988.327 1.48.327zm21.725 0a4.407 4.407 0 001.975-.492 3.54 3.54 0 001.15-.981l.495-.489-.329-1.635-.987.981c-.659.327-1.483.816-2.141.327l-.33-.165-.328-.981a.357.357 0 01.33-.327 8.364 8.364 0 002.469-1.143 4.201 4.201 0 001.502-1.615c.347-.661.51-1.402.473-2.147a2.525 2.525 0 00-.416-1.141 2.556 2.556 0 00-.9-.819 3.504 3.504 0 00-3.629.49 8.19 8.19 0 00-2.007 3.066 8.141 8.141 0 00-.463 3.628 4.275 4.275 0 002.14 3.435c.33-.164.659 0 .988 0l.008.008zm37.013-.172h1.15c.496 0 1.647-1.144 1.976-1.962l.329 1.145.33.327c.494.49 1.482.327 2.14.327l.492-1.802c-.329 0-.821-.162-.821-.489a37.033 37.033 0 01.821-7.849 5.558 5.558 0 00-3.95-.654 4.593 4.593 0 00-3.125 2.289 9.308 9.308 0 00-.824 7.522c.297.458.69.848 1.153 1.143l.33.003zm-30.28 0h2.304l1.975-15.708h-2.304l-1.975 15.708zm6.254 0h2.138l2.141-15.708H46.32l-1.975 15.708h-.02zm8.392 0l.822-6.049a2.263 2.263 0 01.602-1.416c.36-.388.846-.64 1.373-.711.658 0 .824.654.824 1.146l-.987 6.867h2.304l.658-5.886a2.56 2.56 0 01.48-1.387c.293-.407.698-.72 1.166-.902.329-.165 1.48-.165 1.317 1.143l-.825 7.032h2.304l.825-6.867a5.806 5.806 0 00-.33-3.105 1.642 1.642 0 00-.824-.654 2.674 2.674 0 00-1.672.083 2.657 2.657 0 00-1.29 1.06c-.33.327-.33.816-.659.981-.329-.654-.492-1.803-1.15-2.124a2.481 2.481 0 00-2.634.654c-.495.327-.658.978-.987 1.47l-.658-2.124-2.141.489a70.347 70.347 0 01-.822 10.137l2.304.163zm16.622-2.616c.658.164.987-.163 1.48-.655 1.316-1.308.987-3.432 1.316-5.232a1.589 1.589 0 00-1.48 0 2.94 2.94 0 00-1.482 1.635 5.887 5.887 0 00-.33 4.089c.33.163.33.163.496.163zm-38.51-2.779a3.378 3.378 0 001.483-.819 2.362 2.362 0 001.15-1.802c0-.165-.162-.327-.162-.492 0-.327-.33-.327-.659-.489a2.285 2.285 0 00-1.316 1.143 6.532 6.532 0 00-.495 2.454v.005zm-14.316 5.408h2.304l1.316-6.868c.824-1.143 2.633-2.613 2.468.165l-.822 6.695h2.468l.824-6.695a6.47 6.47 0 00-.33-3.27 1.727 1.727 0 00-1.482-.816c-1.48 0-2.302 1.308-2.96 2.286l-.495-2.124-2.138.327a65.575 65.575 0 01-1.153 10.3zm61.876 0h2.304l1.317-6.868c.822-1.143 2.633-2.613 2.467.165l-.987 6.695h2.47l.821-6.695a6.44 6.44 0 00-.329-3.27 1.724 1.724 0 00-1.48-.816c-1.482 0-2.304 1.308-2.962 2.286l-.495-2.124-1.814.327a65.343 65.343 0 01-1.317 10.3" fill="#fff"/>
  <path fill-rule="evenodd" clip-rule="evenodd" d="M60.106 103.855a8.233 8.233 0 002.006-.339c1.003-.506 2.006-1.015 2.84-1.522.166-.847-.168-1.865.335-2.707l.5-.339c.503 0 1.003-.338 1.506-.338a4.903 4.903 0 002.004-1.292 4.985 4.985 0 001.171-2.093 8.358 8.358 0 00.168-4.06c-.168-.34-.502-.507-.668-.678l-2.34.677-.17-.168a6.432 6.432 0 00-.668-6.262c-.334-.507-.834-.845-1.003-1.184h-.329a9.011 9.011 0 01-2.506 1.522 7.11 7.11 0 00-1.17.847l-.668-1.185c-.334-.507-1.171-.507-1.672-.845a5.417 5.417 0 00-4.012-.677c-1.337 1.015-2.006 2.198-3.177 3.214l-1.17.17a8.966 8.966 0 00-1.002 5.064c.297.525.695.985 1.168 1.354l.335.338-1.169 1.013a5.643 5.643 0 00-.169 2.878c.208.705.489 1.385.838 2.03.238.422.517.819.834 1.184.503.17.669-.339 1.172-.507l1.671-.847h.166c.335.847.335 2.201 1.172 2.708a4.943 4.943 0 003.01 1.353 3.42 3.42 0 001.002.677l-.005.014zm-1.332-7.289h1.003c.166-.17.5-.338.669-.677 0-.338.165-.509 0-.847l-1.506-.677-.835 1.354.669.847zm3.51-.847c.333 0 .502-.168.836-.339l-.168-1.522-1.003-.168-1.003 1.184c.168.506.837.677 1.337.845zm-1.504-2.2a4.19 4.19 0 000-2.03c-.334-.338-.669-.845-1.003-1.015-.31.007-.608.127-.837.338-.166 1.186 1.003 1.866 1.842 2.708h-.002zm-1.843-.338c.168-.338-.334-.844-.5-.844l-.335-.17c-.168-.169-.168-.507-.334-.846-.334 0-.669-.17-.837.168-.127.44-.183.897-.166 1.354.334.509 1.337.17 2.172.338zm3.343-.167a3.435 3.435 0 001.172-1.016 7.46 7.46 0 00-.169-.847l-.668.338c-.335 0-.5.17-.835.339a.622.622 0 00-.168.509l.668.677z" fill="#EC1C24"/>
  <path fill-rule="evenodd" clip-rule="evenodd" d="M1.888 100.077A186.548 186.548 0 0148.93 88.655c0-.17.165-.682.165-.852H1.888v12.274z" fill="#0066B2"/>
  <defs>
    <radialGradient id="hmPbzZsuda" cx="0" cy="0" r="1" gradientUnits="userSpaceOnUse" gradientTransform="translate(47.679 46.735) scale(44.7567)">
      <stop stop-color="#FFF9B9"/>
      <stop offset=".393" stop-color="#FFF9B9"/>
      <stop offset=".464" stop-color="#FFF5AF"/>
      <stop offset=".586" stop-color="#FEEB94"/>
      <stop offset=".742" stop-color="#FEDA69"/>
      <stop offset=".926" stop-color="#FCC22D"/>
      <stop offset="1" stop-color="#FCB813"/>
    </radialGradient>
  </defs>
</svg>
